<?xml version="1.0" encoding="UTF-8" standalone="no"?>
<svg
   xmlns:ns0="http://www.iki.fi/pav/software/textext/"
   xmlns:dc="http://purl.org/dc/elements/1.1/"
   xmlns:cc="http://creativecommons.org/ns#"
   xmlns:rdf="http://www.w3.org/1999/02/22-rdf-syntax-ns#"
   xmlns:svg="http://www.w3.org/2000/svg"
   xmlns="http://www.w3.org/2000/svg"
   xmlns:xlink="http://www.w3.org/1999/xlink"
   xmlns:sodipodi="http://sodipodi.sourceforge.net/DTD/sodipodi-0.dtd"
   xmlns:inkscape="http://www.inkscape.org/namespaces/inkscape"
   width="576px"
   height="432px"
   viewBox="0 0 576 432"
   id="svg2"
   version="1.1"
   inkscape:version="0.91 r13725"
   sodipodi:docname="linear_g.svg">
  <sodipodi:namedview
     pagecolor="#ffffff"
     bordercolor="#666666"
     borderopacity="1"
     objecttolerance="10"
     gridtolerance="10"
     guidetolerance="10"
     inkscape:pageopacity="0"
     inkscape:pageshadow="2"
     inkscape:window-width="1364"
     inkscape:window-height="700"
     id="namedview138"
     showgrid="false"
     inkscape:zoom="1"
     inkscape:cx="288"
     inkscape:cy="212.33898"
     inkscape:window-x="0"
     inkscape:window-y="40"
     inkscape:window-maximized="1"
     inkscape:current-layer="svg2" />
  <metadata
     id="metadata140">
    <rdf:RDF>
      <cc:Work
         rdf:about="">
        <dc:format>image/svg+xml</dc:format>
        <dc:type
           rdf:resource="http://purl.org/dc/dcmitype/StillImage" />
      </cc:Work>
    </rdf:RDF>
  </metadata>
  <title
     id="title4">glps_renderer figure</title>
  <desc
     id="desc6">
Creator: GL2PS 1.3.8, (C) 1999-2012 C. Geuzaine
For: Octave
CreationDate: Wed Sep  7 08:27:35 2016
</desc>
  <defs
     id="defs8" />
  <polygon
     points="74.88,32.4 74.88,384.48 521.28,384.48 "
     id="polygon12"
     style="fill:#ffffff;shape-rendering:crispEdges" />
  <polygon
     points="74.88,32.4 521.28,384.48 521.28,32.4 "
     id="polygon14"
     style="fill:#ffffff;shape-rendering:crispEdges" />
  <polyline
     points="74.88,384.48 521.28,384.48"
     id="polyline16"
     style="fill:none;stroke:#000000;stroke-width:0.5;stroke-dasharray:16, 0;shape-rendering:crispEdges" />
  <polyline
     points="74.88,32.4 521.28,32.4"
     id="polyline18"
     style="fill:none;stroke:#000000;stroke-width:0.5;stroke-dasharray:16, 0;shape-rendering:crispEdges" />
  <polyline
     points="74.88,384.48 74.88,32.4"
     id="polyline20"
     style="fill:none;stroke:#000000;stroke-width:0.5;stroke-dasharray:16, 0;shape-rendering:crispEdges" />
  <polyline
     points="521.28,384.48 521.28,32.4"
     id="polyline22"
     style="fill:none;stroke:#000000;stroke-width:0.5;stroke-dasharray:16, 0;shape-rendering:crispEdges" />
  <polyline
     points="74.88,384.48 74.88,380.015"
     id="polyline24"
     style="fill:none;stroke:#000000;stroke-width:0.5;stroke-dasharray:16, 0;shape-rendering:crispEdges" />
  <polyline
     points="74.88,32.4 74.88,36.865"
     id="polyline26"
     style="fill:none;stroke:#000000;stroke-width:0.5;stroke-dasharray:16, 0;shape-rendering:crispEdges" />
  <polyline
     points="164.16,384.48 164.16,380.015"
     id="polyline28"
     style="fill:none;stroke:#000000;stroke-width:0.5;stroke-dasharray:16, 0;shape-rendering:crispEdges" />
  <polyline
     points="164.16,32.4 164.16,36.865"
     id="polyline30"
     style="fill:none;stroke:#000000;stroke-width:0.5;stroke-dasharray:16, 0;shape-rendering:crispEdges" />
  <polyline
     points="253.44,384.48 253.44,380.015"
     id="polyline32"
     style="fill:none;stroke:#000000;stroke-width:0.5;stroke-dasharray:16, 0;shape-rendering:crispEdges" />
  <polyline
     points="253.44,32.4 253.44,36.865"
     id="polyline34"
     style="fill:none;stroke:#000000;stroke-width:0.5;stroke-dasharray:16, 0;shape-rendering:crispEdges" />
  <polyline
     points="342.72,384.48 342.72,380.015"
     id="polyline36"
     style="fill:none;stroke:#000000;stroke-width:0.5;stroke-dasharray:16, 0;shape-rendering:crispEdges" />
  <polyline
     points="342.72,32.4 342.72,36.865"
     id="polyline38"
     style="fill:none;stroke:#000000;stroke-width:0.5;stroke-dasharray:16, 0;shape-rendering:crispEdges" />
  <polyline
     points="432,384.48 432,380.015"
     id="polyline40"
     style="fill:none;stroke:#000000;stroke-width:0.5;stroke-dasharray:16, 0;shape-rendering:crispEdges" />
  <polyline
     points="432,32.4 432,36.865"
     id="polyline42"
     style="fill:none;stroke:#000000;stroke-width:0.5;stroke-dasharray:16, 0;shape-rendering:crispEdges" />
  <polyline
     points="521.28,384.48 521.28,380.015"
     id="polyline44"
     style="fill:none;stroke:#000000;stroke-width:0.5;stroke-dasharray:16, 0;shape-rendering:crispEdges" />
  <polyline
     points="521.28,32.4 521.28,36.865"
     id="polyline46"
     style="fill:none;stroke:#000000;stroke-width:0.5;stroke-dasharray:16, 0;shape-rendering:crispEdges" />
  <text
     x="74.879997"
     y="403.48099"
     font-size="10"
     baseline-shift="-10"
     id="text48"
     style="font-size:25px;font-family:Helvetica;baseline-shift:-10px;text-anchor:middle;fill:#000000;shape-rendering:crispEdges">0</text>
  <text
     x="164.16"
     y="403.48099"
     font-size="10"
     baseline-shift="-10"
     id="text50"
     style="font-size:25px;font-family:Helvetica;baseline-shift:-10px;text-anchor:middle;fill:#000000;shape-rendering:crispEdges">2</text>
  <text
     x="253.44"
     y="403.48099"
     font-size="10"
     baseline-shift="-10"
     id="text52"
     style="font-size:25px;font-family:Helvetica;baseline-shift:-10px;text-anchor:middle;fill:#000000;shape-rendering:crispEdges">4</text>
  <text
     x="342.72"
     y="403.48099"
     font-size="10"
     baseline-shift="-10"
     id="text54"
     style="font-size:25px;font-family:Helvetica;baseline-shift:-10px;text-anchor:middle;fill:#000000;shape-rendering:crispEdges">6</text>
  <text
     x="432"
     y="403.48099"
     font-size="10"
     baseline-shift="-10"
     id="text56"
     style="font-size:25px;font-family:Helvetica;baseline-shift:-10px;text-anchor:middle;fill:#000000;shape-rendering:crispEdges">8</text>
  <text
     x="521.28003"
     y="403.48099"
     font-size="10"
     baseline-shift="-10"
     id="text58"
     style="font-size:25px;font-family:Helvetica;baseline-shift:-10px;text-anchor:middle;fill:#000000;shape-rendering:crispEdges">10</text>
  <polyline
     points="74.88,384.48 79.348,384.48"
     id="polyline60"
     style="fill:none;stroke:#000000;stroke-width:0.5;stroke-dasharray:16, 0;shape-rendering:crispEdges" />
  <polyline
     points="521.28,384.48 516.812,384.48"
     id="polyline62"
     style="fill:none;stroke:#000000;stroke-width:0.5;stroke-dasharray:16, 0;shape-rendering:crispEdges" />
  <polyline
     points="74.88,314.064 79.348,314.064"
     id="polyline64"
     style="fill:none;stroke:#000000;stroke-width:0.5;stroke-dasharray:16, 0;shape-rendering:crispEdges" />
  <polyline
     points="521.28,314.064 516.812,314.064"
     id="polyline66"
     style="fill:none;stroke:#000000;stroke-width:0.5;stroke-dasharray:16, 0;shape-rendering:crispEdges" />
  <polyline
     points="74.88,243.648 79.348,243.648"
     id="polyline68"
     style="fill:none;stroke:#000000;stroke-width:0.5;stroke-dasharray:16, 0;shape-rendering:crispEdges" />
  <polyline
     points="521.28,243.648 516.812,243.648"
     id="polyline70"
     style="fill:none;stroke:#000000;stroke-width:0.5;stroke-dasharray:16, 0;shape-rendering:crispEdges" />
  <polyline
     points="74.88,173.232 79.348,173.232"
     id="polyline72"
     style="fill:none;stroke:#000000;stroke-width:0.5;stroke-dasharray:16, 0;shape-rendering:crispEdges" />
  <polyline
     points="521.28,173.232 516.812,173.232"
     id="polyline74"
     style="fill:none;stroke:#000000;stroke-width:0.5;stroke-dasharray:16, 0;shape-rendering:crispEdges" />
  <polyline
     points="74.88,102.816 79.348,102.816"
     id="polyline76"
     style="fill:none;stroke:#000000;stroke-width:0.5;stroke-dasharray:16, 0;shape-rendering:crispEdges" />
  <polyline
     points="521.28,102.816 516.812,102.816"
     id="polyline78"
     style="fill:none;stroke:#000000;stroke-width:0.5;stroke-dasharray:16, 0;shape-rendering:crispEdges" />
  <polyline
     points="74.88,32.4 79.348,32.4"
     id="polyline80"
     style="fill:none;stroke:#000000;stroke-width:0.5;stroke-dasharray:16, 0;shape-rendering:crispEdges" />
  <polyline
     points="521.28,32.4 516.812,32.4"
     id="polyline82"
     style="fill:none;stroke:#000000;stroke-width:0.5;stroke-dasharray:16, 0;shape-rendering:crispEdges" />
  <text
     x="47.875504"
     y="384.48001"
     font-size="10"
     baseline-shift="-5"
     id="text84"
     style="font-size:25px;font-family:Helvetica;baseline-shift:-5px;text-anchor:end;fill:#000000;shape-rendering:crispEdges">0</text>
  <text
     x="47.875504"
     y="314.064"
     font-size="10"
     baseline-shift="-5"
     id="text86"
     style="font-size:25px;font-family:Helvetica;baseline-shift:-5px;text-anchor:end;fill:#000000;shape-rendering:crispEdges">20</text>
  <text
     x="47.875504"
     y="243.64799"
     font-size="10"
     baseline-shift="-5"
     id="text88"
     style="font-size:25px;font-family:Helvetica;baseline-shift:-5px;text-anchor:end;fill:#000000;shape-rendering:crispEdges">40</text>
  <text
     x="47.875504"
     y="173.23199"
     font-size="10"
     baseline-shift="-5"
     id="text90"
     style="font-size:25px;font-family:Helvetica;baseline-shift:-5px;text-anchor:end;fill:#000000;shape-rendering:crispEdges">60</text>
  <text
     x="47.875504"
     y="102.816"
     font-size="10"
     baseline-shift="-5"
     id="text92"
     style="font-size:25px;font-family:Helvetica;baseline-shift:-5px;text-anchor:end;fill:#000000;shape-rendering:crispEdges">80</text>
  <text
     x="47.875504"
     y="32.400002"
     font-size="10"
     baseline-shift="-5"
     id="text94"
     style="font-size:25px;font-family:Helvetica;baseline-shift:-5px;text-anchor:end;fill:#000000;shape-rendering:crispEdges">100</text>
  <text
     transform="scale(0.95719535,1.0447188)"
     x="314.48782"
     y="421.62634"
     font-size="10"
     baseline-shift="-10"
     id="text96"
     style="font-size:23.92988396px;font-family:Helvetica;baseline-shift:-10px;text-anchor:middle;fill:#000000;shape-rendering:crispEdges"><tspan
   id="tspan5290"
   style="font-style:italic">l</tspan>

 [dm]</text>
  <text
     x="-208.44"
     y="-4.1244965"
     font-size="10"
     transform="matrix(0,-1,1,0,0,0)"
     baseline-shift="0"
     id="text98"
     style="font-size:25px;font-family:Helvetica;baseline-shift:0px;text-anchor:middle;fill:#000000;shape-rendering:crispEdges"><tspan
   id="tspan5292"
   style="font-style:italic">A</tspan>

[dm2]</text>
  <polyline
     points="79.344,384.445 83.808,384.339 88.272,384.163 92.736,383.917 97.2,383.6 101.664,383.213 106.128,382.755 110.592,382.227 115.056,381.628 119.52,380.959 123.984,380.22 128.448,379.41 132.912,378.53 137.376,377.579 141.84,376.558 146.304,375.467 150.768,374.305 155.232,373.073 159.696,371.77 164.16,370.397 168.624,368.953 173.088,367.439 177.552,365.855 182.016,364.2 186.48,362.475 190.944,360.679 195.408,358.813 199.872,356.877 204.336,354.87 208.8,352.793 213.264,350.645 217.728,348.427 222.192,346.138 226.656,343.78 231.12,341.35 235.584,338.85 240.048,336.28 244.512,333.64 248.976,330.929 253.44,328.147 257.904,325.295 262.368,322.373 266.832,319.38 271.296,316.317 275.76,313.184 280.224,309.98 284.688,306.706 289.152,303.361 293.616,299.946 298.08,296.46 302.544,292.904 307.008,289.278 311.472,285.581 315.936,281.813 320.4,277.976 324.864,274.068 329.328,270.089 333.792,266.04 338.256,261.921 342.72,257.731 347.184,253.471 351.648,249.14 356.112,244.739 360.576,240.268 365.04,235.726 369.504,231.114 373.968,226.431 378.432,221.678 382.896,216.855 387.36,211.961 391.824,206.996 396.288,201.962 400.752,196.857 405.216,191.681 409.68,186.435 414.144,181.119 418.608,175.732 423.072,170.275 427.536,164.747 432,159.149 436.464,153.48 440.928,147.741 445.392,141.932 449.856,136.052 454.32,130.102 458.784,124.082 463.248,117.991 467.712,111.829 472.176,105.597 476.64,99.2952 481.104,92.9225 485.568,86.4795 490.032,79.966 494.496,73.3821 498.96,66.7278 503.424,60.0031 507.888,53.2079 512.352,46.3424 516.816,39.4064 521.28,32.4"
     id="polyline100"
     style="fill:none;stroke:#0000ff;stroke-width:0.5;shape-rendering:crispEdges" />
  <polyline
     points="76.344,381.128 82.344,387.128"
     id="polyline102"
     style="fill:none;stroke:#0000ff;stroke-width:0.5;shape-rendering:crispEdges" />
  <polyline
     points="76.344,387.128 82.344,381.128"
     id="polyline104"
     style="fill:none;stroke:#0000ff;stroke-width:0.5;shape-rendering:crispEdges" />
  <polyline
     points="116.52,377.959 122.52,383.959"
     id="polyline106"
     style="fill:none;stroke:#0000ff;stroke-width:0.5;shape-rendering:crispEdges" />
  <polyline
     points="116.52,383.959 122.52,377.959"
     id="polyline108"
     style="fill:none;stroke:#0000ff;stroke-width:0.5;shape-rendering:crispEdges" />
  <polyline
     points="518.28,346.272 524.28,352.272"
     id="polyline110"
     style="fill:none;stroke:#0000ff;stroke-width:0.5;shape-rendering:crispEdges" />
  <polyline
     points="518.28,352.272 524.28,346.272"
     id="polyline112"
     style="fill:none;stroke:#0000ff;stroke-width:0.5;shape-rendering:crispEdges" />
  <polyline
     points="76.344,381.128 82.344,387.128"
     id="polyline114"
     style="fill:none;stroke:#ff0000;stroke-width:0.5;shape-rendering:crispEdges" />
  <polyline
     points="76.344,387.128 82.344,381.128"
     id="polyline116"
     style="fill:none;stroke:#ff0000;stroke-width:0.5;shape-rendering:crispEdges" />
  <polyline
     points="116.52,377.959 122.52,383.959"
     id="polyline118"
     style="fill:none;stroke:#ff0000;stroke-width:0.5;shape-rendering:crispEdges" />
  <polyline
     points="116.52,383.959 122.52,377.959"
     id="polyline120"
     style="fill:none;stroke:#ff0000;stroke-width:0.5;shape-rendering:crispEdges" />
  <polyline
     points="518.28,346.272 524.28,352.272"
     id="polyline122"
     style="fill:none;stroke:#ff0000;stroke-width:0.5;shape-rendering:crispEdges" />
  <polyline
     points="518.28,352.272 524.28,346.272"
     id="polyline124"
     style="fill:none;stroke:#ff0000;stroke-width:0.5;shape-rendering:crispEdges" />
  <polyline
     points="76.344,381.445 82.344,387.445"
     id="polyline126"
     style="fill:none;stroke:#ff0000;stroke-width:0.5;shape-rendering:crispEdges" />
  <polyline
     points="76.344,387.445 82.344,381.445"
     id="polyline128"
     style="fill:none;stroke:#ff0000;stroke-width:0.5;shape-rendering:crispEdges" />
  <polyline
     points="116.52,377.959 122.52,383.959"
     id="polyline130"
     style="fill:none;stroke:#ff0000;stroke-width:0.5;shape-rendering:crispEdges" />
  <polyline
     points="116.52,383.959 122.52,377.959"
     id="polyline132"
     style="fill:none;stroke:#ff0000;stroke-width:0.5;shape-rendering:crispEdges" />
  <polyline
     points="518.28,29.4 524.28,35.4"
     id="polyline134"
     style="fill:none;stroke:#ff0000;stroke-width:0.5;shape-rendering:crispEdges" />
  <polyline
     points="518.28,35.4 524.28,29.4"
     id="polyline136"
     style="fill:none;stroke:#ff0000;stroke-width:0.5;shape-rendering:crispEdges" />
  <g
     id="g5365"
     ns0:preamble=""
     ns0:text="$A$ [dm$^2$] "
     transform="scale(8.000000,8.000000)">
    <defs
       id="defs5367">
      <g
         id="g5369">
        <symbol
           id="textext-c95bd9c3-0"
           overflow="visible">
          <path
             id="path5372"
             d=""
             style="stroke:none;" />
        </symbol>
        <symbol
           id="textext-c95bd9c3-1"
           overflow="visible">
          <path
             id="path5375"
             d="M 1.78125 -1.140625 C 1.390625 -0.484375 1 -0.34375 0.5625 -0.3125 C 0.4375 -0.296875 0.34375 -0.296875 0.34375 -0.109375 C 0.34375 -0.046875 0.40625 0 0.484375 0 C 0.75 0 1.0625 -0.03125 1.328125 -0.03125 C 1.671875 -0.03125 2.015625 0 2.328125 0 C 2.390625 0 2.515625 0 2.515625 -0.1875 C 2.515625 -0.296875 2.4375 -0.3125 2.359375 -0.3125 C 2.140625 -0.328125 1.890625 -0.40625 1.890625 -0.65625 C 1.890625 -0.78125 1.953125 -0.890625 2.03125 -1.03125 L 2.796875 -2.296875 L 5.296875 -2.296875 C 5.3125 -2.09375 5.453125 -0.734375 5.453125 -0.640625 C 5.453125 -0.34375 4.9375 -0.3125 4.734375 -0.3125 C 4.59375 -0.3125 4.5 -0.3125 4.5 -0.109375 C 4.5 0 4.609375 0 4.640625 0 C 5.046875 0 5.46875 -0.03125 5.875 -0.03125 C 6.125 -0.03125 6.765625 0 7.015625 0 C 7.0625 0 7.1875 0 7.1875 -0.203125 C 7.1875 -0.3125 7.09375 -0.3125 6.953125 -0.3125 C 6.34375 -0.3125 6.34375 -0.375 6.3125 -0.671875 L 5.703125 -6.890625 C 5.6875 -7.09375 5.6875 -7.140625 5.515625 -7.140625 C 5.359375 -7.140625 5.3125 -7.0625 5.25 -6.96875 Z M 2.984375 -2.609375 L 4.9375 -5.90625 L 5.265625 -2.609375 Z M 2.984375 -2.609375 "
             style="stroke:none;" />
        </symbol>
        <symbol
           id="textext-c95bd9c3-2"
           overflow="visible">
          <path
             id="path5378"
             d=""
             style="stroke:none;" />
        </symbol>
        <symbol
           id="textext-c95bd9c3-3"
           overflow="visible">
          <path
             id="path5381"
             d="M 2.546875 2.5 L 2.546875 2.09375 L 1.578125 2.09375 L 1.578125 -7.078125 L 2.546875 -7.078125 L 2.546875 -7.484375 L 1.171875 -7.484375 L 1.171875 2.5 Z M 2.546875 2.5 "
             style="stroke:none;" />
        </symbol>
        <symbol
           id="textext-c95bd9c3-4"
           overflow="visible">
          <path
             id="path5384"
             d="M 3.78125 -0.546875 L 3.78125 0.109375 L 5.25 0 L 5.25 -0.3125 C 4.5625 -0.3125 4.46875 -0.375 4.46875 -0.875 L 4.46875 -6.921875 L 3.046875 -6.8125 L 3.046875 -6.5 C 3.734375 -6.5 3.8125 -6.4375 3.8125 -5.9375 L 3.8125 -3.78125 C 3.53125 -4.140625 3.09375 -4.40625 2.5625 -4.40625 C 1.390625 -4.40625 0.34375 -3.421875 0.34375 -2.140625 C 0.34375 -0.875 1.3125 0.109375 2.453125 0.109375 C 3.09375 0.109375 3.53125 -0.234375 3.78125 -0.546875 Z M 3.78125 -3.21875 L 3.78125 -1.171875 C 3.78125 -1 3.78125 -0.984375 3.671875 -0.8125 C 3.375 -0.328125 2.9375 -0.109375 2.5 -0.109375 C 2.046875 -0.109375 1.6875 -0.375 1.453125 -0.75 C 1.203125 -1.15625 1.171875 -1.71875 1.171875 -2.140625 C 1.171875 -2.5 1.1875 -3.09375 1.46875 -3.546875 C 1.6875 -3.859375 2.0625 -4.1875 2.609375 -4.1875 C 2.953125 -4.1875 3.375 -4.03125 3.671875 -3.59375 C 3.78125 -3.421875 3.78125 -3.40625 3.78125 -3.21875 Z M 3.78125 -3.21875 "
             style="stroke:none;" />
        </symbol>
        <symbol
           id="textext-c95bd9c3-5"
           overflow="visible">
          <path
             id="path5387"
             d="M 1.09375 -3.421875 L 1.09375 -0.75 C 1.09375 -0.3125 0.984375 -0.3125 0.3125 -0.3125 L 0.3125 0 C 0.671875 -0.015625 1.171875 -0.03125 1.453125 -0.03125 C 1.703125 -0.03125 2.21875 -0.015625 2.5625 0 L 2.5625 -0.3125 C 1.890625 -0.3125 1.78125 -0.3125 1.78125 -0.75 L 1.78125 -2.59375 C 1.78125 -3.625 2.5 -4.1875 3.125 -4.1875 C 3.765625 -4.1875 3.875 -3.65625 3.875 -3.078125 L 3.875 -0.75 C 3.875 -0.3125 3.765625 -0.3125 3.09375 -0.3125 L 3.09375 0 C 3.4375 -0.015625 3.953125 -0.03125 4.21875 -0.03125 C 4.46875 -0.03125 5 -0.015625 5.328125 0 L 5.328125 -0.3125 C 4.671875 -0.3125 4.5625 -0.3125 4.5625 -0.75 L 4.5625 -2.59375 C 4.5625 -3.625 5.265625 -4.1875 5.90625 -4.1875 C 6.53125 -4.1875 6.640625 -3.65625 6.640625 -3.078125 L 6.640625 -0.75 C 6.640625 -0.3125 6.53125 -0.3125 5.859375 -0.3125 L 5.859375 0 C 6.203125 -0.015625 6.71875 -0.03125 6.984375 -0.03125 C 7.25 -0.03125 7.765625 -0.015625 8.109375 0 L 8.109375 -0.3125 C 7.59375 -0.3125 7.34375 -0.3125 7.328125 -0.609375 L 7.328125 -2.515625 C 7.328125 -3.375 7.328125 -3.671875 7.015625 -4.03125 C 6.875 -4.203125 6.546875 -4.40625 5.96875 -4.40625 C 5.140625 -4.40625 4.6875 -3.8125 4.53125 -3.421875 C 4.390625 -4.296875 3.65625 -4.40625 3.203125 -4.40625 C 2.46875 -4.40625 2 -3.984375 1.71875 -3.359375 L 1.71875 -4.40625 L 0.3125 -4.296875 L 0.3125 -3.984375 C 1.015625 -3.984375 1.09375 -3.921875 1.09375 -3.421875 Z M 1.09375 -3.421875 "
             style="stroke:none;" />
        </symbol>
        <symbol
           id="textext-c95bd9c3-6"
           overflow="visible">
          <path
             id="path5390"
             d="M 1.578125 -7.484375 L 0.21875 -7.484375 L 0.21875 -7.078125 L 1.1875 -7.078125 L 1.1875 2.09375 L 0.21875 2.09375 L 0.21875 2.5 L 1.578125 2.5 Z M 1.578125 -7.484375 "
             style="stroke:none;" />
        </symbol>
        <symbol
           id="textext-c95bd9c3-7"
           overflow="visible">
          <path
             id="path5393"
             d=""
             style="stroke:none;" />
        </symbol>
        <symbol
           id="textext-c95bd9c3-8"
           overflow="visible">
          <path
             id="path5396"
             d="M 3.515625 -1.265625 L 3.28125 -1.265625 C 3.265625 -1.109375 3.1875 -0.703125 3.09375 -0.640625 C 3.046875 -0.59375 2.515625 -0.59375 2.40625 -0.59375 L 1.125 -0.59375 C 1.859375 -1.234375 2.109375 -1.4375 2.515625 -1.765625 C 3.03125 -2.171875 3.515625 -2.609375 3.515625 -3.265625 C 3.515625 -4.109375 2.78125 -4.625 1.890625 -4.625 C 1.03125 -4.625 0.4375 -4.015625 0.4375 -3.375 C 0.4375 -3.03125 0.734375 -2.984375 0.8125 -2.984375 C 0.96875 -2.984375 1.171875 -3.109375 1.171875 -3.359375 C 1.171875 -3.484375 1.125 -3.734375 0.765625 -3.734375 C 0.984375 -4.21875 1.453125 -4.375 1.78125 -4.375 C 2.484375 -4.375 2.84375 -3.828125 2.84375 -3.265625 C 2.84375 -2.65625 2.40625 -2.1875 2.1875 -1.9375 L 0.515625 -0.265625 C 0.4375 -0.203125 0.4375 -0.1875 0.4375 0 L 3.3125 0 Z M 3.515625 -1.265625 "
             style="stroke:none;" />
        </symbol>
      </g>
    </defs>
    <g
       id="textext-c95bd9c3-9">
      <g
         id="g5399"
         style="fill:rgb(0%,0%,0%);fill-opacity:1;">
        <use
           id="use5401"
           y="134.765"
           x="223.432"
           xlink:href="#textext-c95bd9c3-1" />
      </g>
      <g
         id="g5403"
         style="fill:rgb(0%,0%,0%);fill-opacity:1;">
        <use
           id="use5405"
           y="134.765"
           x="234.225"
           xlink:href="#textext-c95bd9c3-3" />
        <use
           id="use5407"
           y="134.765"
           x="236.99261"
           xlink:href="#textext-c95bd9c3-4" />
        <use
           id="use5409"
           y="134.765"
           x="242.527831"
           xlink:href="#textext-c95bd9c3-5" />
      </g>
      <g
         id="g5411"
         style="fill:rgb(0%,0%,0%);fill-opacity:1;">
        <use
           id="use5413"
           y="131.149"
           x="250.829"
           xlink:href="#textext-c95bd9c3-8" />
      </g>
      <g
         id="g5415"
         style="fill:rgb(0%,0%,0%);fill-opacity:1;">
        <use
           id="use5417"
           y="134.765"
           x="255.299"
           xlink:href="#textext-c95bd9c3-6" />
      </g>
    </g>
  </g>
</svg>
