<?xml version="1.0" encoding="UTF-8" standalone="no"?>
<svg
   xmlns:ns0="http://www.iki.fi/pav/software/textext/"
   xmlns:dc="http://purl.org/dc/elements/1.1/"
   xmlns:cc="http://creativecommons.org/ns#"
   xmlns:rdf="http://www.w3.org/1999/02/22-rdf-syntax-ns#"
   xmlns:svg="http://www.w3.org/2000/svg"
   xmlns="http://www.w3.org/2000/svg"
   xmlns:xlink="http://www.w3.org/1999/xlink"
   xmlns:sodipodi="http://sodipodi.sourceforge.net/DTD/sodipodi-0.dtd"
   xmlns:inkscape="http://www.inkscape.org/namespaces/inkscape"
   width="601.40643"
   height="476.39346"
   viewBox="0 0 601.40643 476.39346"
   id="svg2"
   version="1.1"
   inkscape:version="0.91 r13725"
   sodipodi:docname="linear_g.svg">
  <metadata
     id="metadata140">
    <rdf:RDF>
      <cc:Work
         rdf:about="">
        <dc:format>image/svg+xml</dc:format>
        <dc:type
           rdf:resource="http://purl.org/dc/dcmitype/StillImage" />
        <dc:title>glps_renderer figure</dc:title>
      </cc:Work>
    </rdf:RDF>
  </metadata>
  <sodipodi:namedview
     pagecolor="#ffffff"
     bordercolor="#666666"
     borderopacity="1"
     objecttolerance="10"
     gridtolerance="10"
     guidetolerance="10"
     inkscape:pageopacity="0"
     inkscape:pageshadow="2"
     inkscape:window-width="1364"
     inkscape:window-height="700"
     id="namedview138"
     showgrid="false"
     fit-margin-top="0"
     fit-margin-left="0"
     fit-margin-right="0"
     fit-margin-bottom="0"
     inkscape:zoom="6.3395389"
     inkscape:cx="173.07107"
     inkscape:cy="111.71035"
     inkscape:window-x="0"
     inkscape:window-y="40"
     inkscape:window-maximized="1"
     inkscape:current-layer="svg2" />
  <title
     id="title4">glps_renderer figure</title>
  <desc
     id="desc6">
Creator: GL2PS 1.3.8, (C) 1999-2012 C. Geuzaine
For: Octave
CreationDate: Wed Sep  7 08:27:35 2016
</desc>
  <defs
     id="defs8" />
  <polygon
     transform="translate(79.291593,-4.2849983)"
     style="fill:#ffffff;shape-rendering:crispEdges"
     points="521.28,384.48 74.88,32.4 74.88,384.48 "
     id="polygon12-6" />
  <polygon
     transform="translate(65.609253,-23.189628)"
     style="fill:#ffffff;shape-rendering:crispEdges"
     points="521.28,32.4 74.88,32.4 521.28,384.48 "
     id="polygon14-7" />
  <polyline
     transform="translate(65.880773,-18.845318)"
     style="fill:none;stroke:#000000;stroke-width:0.5;stroke-dasharray:16, 0;shape-rendering:crispEdges"
     points="74.88,384.48 521.28,384.48"
     id="polyline16-5" />
  <polyline
     transform="translate(65.880773,-18.845318)"
     style="fill:none;stroke:#000000;stroke-width:0.5;stroke-dasharray:16, 0;shape-rendering:crispEdges"
     points="74.88,32.4 521.28,32.4"
     id="polyline18-3" />
  <polyline
     transform="translate(65.880773,-18.845318)"
     style="fill:none;stroke:#000000;stroke-width:0.5;stroke-dasharray:16, 0;shape-rendering:crispEdges"
     points="74.88,384.48 74.88,32.4"
     id="polyline20-5" />
  <polyline
     transform="translate(65.880773,-18.845318)"
     style="fill:none;stroke:#000000;stroke-width:0.5;stroke-dasharray:16, 0;shape-rendering:crispEdges"
     points="521.28,384.48 521.28,32.4"
     id="polyline22-6" />
  <polyline
     transform="translate(65.880773,-18.845318)"
     style="fill:none;stroke:#000000;stroke-width:0.5;stroke-dasharray:16, 0;shape-rendering:crispEdges"
     points="74.88,384.48 74.88,380.015"
     id="polyline24-2" />
  <polyline
     transform="translate(65.880773,-18.845318)"
     style="fill:none;stroke:#000000;stroke-width:0.5;stroke-dasharray:16, 0;shape-rendering:crispEdges"
     points="74.88,32.4 74.88,36.865"
     id="polyline26-9" />
  <polyline
     transform="translate(65.880773,-18.845318)"
     style="fill:none;stroke:#000000;stroke-width:0.5;stroke-dasharray:16, 0;shape-rendering:crispEdges"
     points="164.16,384.48 164.16,380.015"
     id="polyline28-1" />
  <polyline
     transform="translate(65.880773,-18.845318)"
     style="fill:none;stroke:#000000;stroke-width:0.5;stroke-dasharray:16, 0;shape-rendering:crispEdges"
     points="164.16,32.4 164.16,36.865"
     id="polyline30-2" />
  <polyline
     transform="translate(65.880773,-18.845318)"
     style="fill:none;stroke:#000000;stroke-width:0.5;stroke-dasharray:16, 0;shape-rendering:crispEdges"
     points="253.44,384.48 253.44,380.015"
     id="polyline32-7" />
  <polyline
     transform="translate(65.880773,-18.845318)"
     style="fill:none;stroke:#000000;stroke-width:0.5;stroke-dasharray:16, 0;shape-rendering:crispEdges"
     points="253.44,32.4 253.44,36.865"
     id="polyline34-0" />
  <polyline
     transform="translate(65.880773,-18.845318)"
     style="fill:none;stroke:#000000;stroke-width:0.5;stroke-dasharray:16, 0;shape-rendering:crispEdges"
     points="342.72,384.48 342.72,380.015"
     id="polyline36-3" />
  <polyline
     transform="translate(65.880773,-18.845318)"
     style="fill:none;stroke:#000000;stroke-width:0.5;stroke-dasharray:16, 0;shape-rendering:crispEdges"
     points="342.72,32.4 342.72,36.865"
     id="polyline38-6" />
  <polyline
     transform="translate(65.880773,-18.845318)"
     style="fill:none;stroke:#000000;stroke-width:0.5;stroke-dasharray:16, 0;shape-rendering:crispEdges"
     points="432,384.48 432,380.015"
     id="polyline40-7" />
  <polyline
     transform="translate(65.880773,-18.845318)"
     style="fill:none;stroke:#000000;stroke-width:0.5;stroke-dasharray:16, 0;shape-rendering:crispEdges"
     points="432,32.4 432,36.865"
     id="polyline42-9" />
  <polyline
     transform="translate(65.880773,-18.845318)"
     style="fill:none;stroke:#000000;stroke-width:0.5;stroke-dasharray:16, 0;shape-rendering:crispEdges"
     points="521.28,384.48 521.28,380.015"
     id="polyline44-3" />
  <polyline
     transform="translate(65.880773,-18.845318)"
     style="fill:none;stroke:#000000;stroke-width:0.5;stroke-dasharray:16, 0;shape-rendering:crispEdges"
     points="521.28,32.4 521.28,36.865"
     id="polyline46-6" />
  <text
     style="font-size:25px;font-family:Helvetica;baseline-shift:-10px;text-anchor:middle;fill:#000000;shape-rendering:crispEdges"
     x="140.76076"
     y="388.63559"
     font-size="10"
     baseline-shift="-10"
     id="text48-5">0</text>
  <text
     style="font-size:25px;font-family:Helvetica;baseline-shift:-10px;text-anchor:middle;fill:#000000;shape-rendering:crispEdges"
     x="230.04076"
     y="388.63559"
     font-size="10"
     baseline-shift="-10"
     id="text50-3">2</text>
  <text
     style="font-size:25px;font-family:Helvetica;baseline-shift:-10px;text-anchor:middle;fill:#000000;shape-rendering:crispEdges"
     x="319.32077"
     y="388.63559"
     font-size="10"
     baseline-shift="-10"
     id="text52-5">4</text>
  <text
     style="font-size:25px;font-family:Helvetica;baseline-shift:-10px;text-anchor:middle;fill:#000000;shape-rendering:crispEdges"
     x="408.6008"
     y="388.63559"
     font-size="10"
     baseline-shift="-10"
     id="text54-6">6</text>
  <text
     style="font-size:25px;font-family:Helvetica;baseline-shift:-10px;text-anchor:middle;fill:#000000;shape-rendering:crispEdges"
     x="497.88074"
     y="388.63559"
     font-size="10"
     baseline-shift="-10"
     id="text56-2">8</text>
  <text
     style="font-size:25px;font-family:Helvetica;baseline-shift:-10px;text-anchor:middle;fill:#000000;shape-rendering:crispEdges"
     x="587.16083"
     y="388.63559"
     font-size="10"
     baseline-shift="-10"
     id="text58-9">10</text>
  <polyline
     transform="translate(65.880773,-18.845318)"
     style="fill:none;stroke:#000000;stroke-width:0.5;stroke-dasharray:16, 0;shape-rendering:crispEdges"
     points="74.88,384.48 79.348,384.48"
     id="polyline60-0" />
  <polyline
     transform="translate(65.880773,-18.845318)"
     style="fill:none;stroke:#000000;stroke-width:0.5;stroke-dasharray:16, 0;shape-rendering:crispEdges"
     points="521.28,384.48 516.812,384.48"
     id="polyline62-6" />
  <polyline
     transform="translate(65.880773,-18.845318)"
     style="fill:none;stroke:#000000;stroke-width:0.5;stroke-dasharray:16, 0;shape-rendering:crispEdges"
     points="74.88,314.064 79.348,314.064"
     id="polyline64-2" />
  <polyline
     transform="translate(65.880773,-18.845318)"
     style="fill:none;stroke:#000000;stroke-width:0.5;stroke-dasharray:16, 0;shape-rendering:crispEdges"
     points="521.28,314.064 516.812,314.064"
     id="polyline66-6" />
  <polyline
     transform="translate(65.880773,-18.845318)"
     style="fill:none;stroke:#000000;stroke-width:0.5;stroke-dasharray:16, 0;shape-rendering:crispEdges"
     points="74.88,243.648 79.348,243.648"
     id="polyline68-1" />
  <polyline
     transform="translate(65.880773,-18.845318)"
     style="fill:none;stroke:#000000;stroke-width:0.5;stroke-dasharray:16, 0;shape-rendering:crispEdges"
     points="521.28,243.648 516.812,243.648"
     id="polyline70-8" />
  <polyline
     transform="translate(65.880773,-18.845318)"
     style="fill:none;stroke:#000000;stroke-width:0.5;stroke-dasharray:16, 0;shape-rendering:crispEdges"
     points="74.88,173.232 79.348,173.232"
     id="polyline72-7" />
  <polyline
     transform="translate(65.880773,-18.845318)"
     style="fill:none;stroke:#000000;stroke-width:0.5;stroke-dasharray:16, 0;shape-rendering:crispEdges"
     points="521.28,173.232 516.812,173.232"
     id="polyline74-9" />
  <polyline
     transform="translate(65.880773,-18.845318)"
     style="fill:none;stroke:#000000;stroke-width:0.5;stroke-dasharray:16, 0;shape-rendering:crispEdges"
     points="74.88,102.816 79.348,102.816"
     id="polyline76-2" />
  <polyline
     transform="translate(65.880773,-18.845318)"
     style="fill:none;stroke:#000000;stroke-width:0.5;stroke-dasharray:16, 0;shape-rendering:crispEdges"
     points="521.28,102.816 516.812,102.816"
     id="polyline78-0" />
  <polyline
     transform="translate(65.880773,-18.845318)"
     style="fill:none;stroke:#000000;stroke-width:0.5;stroke-dasharray:16, 0;shape-rendering:crispEdges"
     points="74.88,32.4 79.348,32.4"
     id="polyline80-2" />
  <polyline
     transform="translate(65.880773,-18.845318)"
     style="fill:none;stroke:#000000;stroke-width:0.5;stroke-dasharray:16, 0;shape-rendering:crispEdges"
     points="521.28,32.4 516.812,32.4"
     id="polyline82-3" />
  <text
     style="font-size:25px;font-family:Helvetica;baseline-shift:-5px;text-anchor:end;fill:#000000;shape-rendering:crispEdges"
     x="135.7563"
     y="365.63461"
     font-size="10"
     baseline-shift="-5"
     id="text84-1">0</text>
  <text
     style="font-size:25px;font-family:Helvetica;baseline-shift:-5px;text-anchor:end;fill:#000000;shape-rendering:crispEdges"
     x="135.7563"
     y="295.21863"
     font-size="10"
     baseline-shift="-5"
     id="text86-2">20</text>
  <text
     style="font-size:25px;font-family:Helvetica;baseline-shift:-5px;text-anchor:end;fill:#000000;shape-rendering:crispEdges"
     x="135.7563"
     y="224.80267"
     font-size="10"
     baseline-shift="-5"
     id="text88-7">40</text>
  <text
     style="font-size:25px;font-family:Helvetica;baseline-shift:-5px;text-anchor:end;fill:#000000;shape-rendering:crispEdges"
     x="135.7563"
     y="154.38666"
     font-size="10"
     baseline-shift="-5"
     id="text90-0">60</text>
  <text
     style="font-size:25px;font-family:Helvetica;baseline-shift:-5px;text-anchor:end;fill:#000000;shape-rendering:crispEdges"
     x="135.7563"
     y="83.970642"
     font-size="10"
     baseline-shift="-5"
     id="text92-9">80</text>
  <text
     style="font-size:25px;font-family:Helvetica;baseline-shift:-5px;text-anchor:end;fill:#000000;shape-rendering:crispEdges"
     x="135.7563"
     y="13.554688"
     font-size="10"
     baseline-shift="-5"
     id="text94-3">100</text>
  <polyline
     transform="matrix(1.008227,0,0,1.0006308,61.226007,-19.090638)"
     style="fill:none;stroke:#0000ff;stroke-width:2;stroke-miterlimit:4;stroke-dasharray:none;shape-rendering:crispEdges"
     points="79.344,384.445 83.808,384.339 88.272,384.163 92.736,383.917 97.2,383.6 101.664,383.213 106.128,382.755 110.592,382.227 115.056,381.628 119.52,380.959 123.984,380.22 128.448,379.41 132.912,378.53 137.376,377.579 141.84,376.558 146.304,375.467 150.768,374.305 155.232,373.073 159.696,371.77 164.16,370.397 168.624,368.953 173.088,367.439 177.552,365.855 182.016,364.2 186.48,362.475 190.944,360.679 195.408,358.813 199.872,356.877 204.336,354.87 208.8,352.793 213.264,350.645 217.728,348.427 222.192,346.138 226.656,343.78 231.12,341.35 235.584,338.85 240.048,336.28 244.512,333.64 248.976,330.929 253.44,328.147 257.904,325.295 262.368,322.373 266.832,319.38 271.296,316.317 275.76,313.184 280.224,309.98 284.688,306.706 289.152,303.361 293.616,299.946 298.08,296.46 302.544,292.904 307.008,289.278 311.472,285.581 315.936,281.813 320.4,277.976 324.864,274.068 329.328,270.089 333.792,266.04 338.256,261.921 342.72,257.731 347.184,253.471 351.648,249.14 356.112,244.739 360.576,240.268 365.04,235.726 369.504,231.114 373.968,226.431 378.432,221.678 382.896,216.855 387.36,211.961 391.824,206.996 396.288,201.962 400.752,196.857 405.216,191.681 409.68,186.435 414.144,181.119 418.608,175.732 423.072,170.275 427.536,164.747 432,159.149 436.464,153.48 440.928,147.741 445.392,141.932 449.856,136.052 454.32,130.102 458.784,124.082 463.248,117.991 467.712,111.829 472.176,105.597 476.64,99.2952 481.104,92.9225 485.568,86.4795 490.032,79.966 494.496,73.3821 498.96,66.7278 503.424,60.0031 507.888,53.2079 512.352,46.3424 516.816,39.4064 521.28,32.4"
     id="polyline100-7" />
  <polyline
     transform="translate(65.880773,-18.845318)"
     style="fill:none;stroke:#0000ff;stroke-width:0.5;shape-rendering:crispEdges"
     points="518.28,346.272 524.28,352.272"
     id="polyline110-8" />
  <polyline
     transform="translate(65.880773,-18.845318)"
     style="fill:none;stroke:#0000ff;stroke-width:0.5;shape-rendering:crispEdges"
     points="518.28,352.272 524.28,346.272"
     id="polyline112-9" />
  <polyline
     transform="translate(65.880773,-18.845318)"
     style="fill:none;stroke:#ff0000;stroke-width:0.5;shape-rendering:crispEdges"
     points="518.28,346.272 524.28,352.272"
     id="polyline122-2" />
  <polyline
     transform="translate(65.880773,-18.845318)"
     style="fill:none;stroke:#ff0000;stroke-width:0.5;shape-rendering:crispEdges"
     points="518.28,352.272 524.28,346.272"
     id="polyline124-9" />
  <g
     transform="matrix(4.4351922,0,0,4.4351922,-668.34517,-132.4032)"
     ns0:text="$l$ [dm]"
     ns0:preamble=""
     id="g5453">
    <defs
       id="defs5455">
      <g
         id="g5457">
        <symbol
           overflow="visible"
           id="textext-0bbd034e-0"
           style="overflow:visible">
          <path
             style="stroke:none"
             d=""
             id="path5460"
             inkscape:connector-curvature="0" />
        </symbol>
        <symbol
           overflow="visible"
           id="textext-0bbd034e-1"
           style="overflow:visible">
          <path
             style="stroke:none"
             d="m 2.578125,-6.8125 c 0,0 0,-0.109375 -0.140625,-0.109375 -0.21875,0 -0.953125,0.078125 -1.21875,0.109375 -0.078125,0 -0.1875,0.015625 -0.1875,0.203125 0,0.109375 0.109375,0.109375 0.25,0.109375 0.484375,0 0.5,0.09375 0.5,0.171875 L 1.75,-6.125 0.484375,-1.140625 C 0.453125,-1.03125 0.4375,-0.96875 0.4375,-0.8125 c 0,0.578125 0.4375,0.921875 0.90625,0.921875 0.328125,0 0.578125,-0.203125 0.75,-0.5625 0.171875,-0.375 0.296875,-0.953125 0.296875,-0.96875 0,-0.109375 -0.09375,-0.109375 -0.125,-0.109375 -0.09375,0 -0.109375,0.046875 -0.125,0.1875 C 1.96875,-0.703125 1.78125,-0.109375 1.375,-0.109375 c -0.296875,0 -0.296875,-0.3125 -0.296875,-0.453125 0,-0.25 0.015625,-0.296875 0.0625,-0.484375 z m 0,0"
             id="path5463"
             inkscape:connector-curvature="0" />
        </symbol>
        <symbol
           overflow="visible"
           id="textext-0bbd034e-2"
           style="overflow:visible">
          <path
             style="stroke:none"
             d=""
             id="path5466"
             inkscape:connector-curvature="0" />
        </symbol>
        <symbol
           overflow="visible"
           id="textext-0bbd034e-3"
           style="overflow:visible">
          <path
             style="stroke:none"
             d="m 2.546875,2.5 0,-0.40625 -0.96875,0 0,-9.171875 0.96875,0 0,-0.40625 -1.375,0 0,9.984375 z m 0,0"
             id="path5469"
             inkscape:connector-curvature="0" />
        </symbol>
        <symbol
           overflow="visible"
           id="textext-0bbd034e-4"
           style="overflow:visible">
          <path
             style="stroke:none"
             d="m 3.78125,-0.546875 0,0.65625 L 5.25,0 l 0,-0.3125 c -0.6875,0 -0.78125,-0.0625 -0.78125,-0.5625 l 0,-6.046875 -1.421875,0.109375 0,0.3125 c 0.6875,0 0.765625,0.0625 0.765625,0.5625 l 0,2.15625 c -0.28125,-0.359375 -0.71875,-0.625 -1.25,-0.625 -1.171875,0 -2.21875,0.984375 -2.21875,2.265625 0,1.265625 0.96875,2.25 2.109375,2.25 0.640625,0 1.078125,-0.34375 1.328125,-0.65625 z m 0,-2.671875 0,2.046875 c 0,0.171875 0,0.1875 -0.109375,0.359375 C 3.375,-0.328125 2.9375,-0.109375 2.5,-0.109375 2.046875,-0.109375 1.6875,-0.375 1.453125,-0.75 1.203125,-1.15625 1.171875,-1.71875 1.171875,-2.140625 1.171875,-2.5 1.1875,-3.09375 1.46875,-3.546875 1.6875,-3.859375 2.0625,-4.1875 2.609375,-4.1875 c 0.34375,0 0.765625,0.15625 1.0625,0.59375 0.109375,0.171875 0.109375,0.1875 0.109375,0.375 z m 0,0"
             id="path5472"
             inkscape:connector-curvature="0" />
        </symbol>
        <symbol
           overflow="visible"
           id="textext-0bbd034e-5"
           style="overflow:visible">
          <path
             style="stroke:none"
             d="m 1.09375,-3.421875 0,2.671875 c 0,0.4375 -0.109375,0.4375 -0.78125,0.4375 l 0,0.3125 c 0.359375,-0.015625 0.859375,-0.03125 1.140625,-0.03125 0.25,0 0.765625,0.015625 1.109375,0.03125 l 0,-0.3125 c -0.671875,0 -0.78125,0 -0.78125,-0.4375 l 0,-1.84375 C 1.78125,-3.625 2.5,-4.1875 3.125,-4.1875 c 0.640625,0 0.75,0.53125 0.75,1.109375 l 0,2.328125 c 0,0.4375 -0.109375,0.4375 -0.78125,0.4375 l 0,0.3125 c 0.34375,-0.015625 0.859375,-0.03125 1.125,-0.03125 0.25,0 0.78125,0.015625 1.109375,0.03125 l 0,-0.3125 c -0.65625,0 -0.765625,0 -0.765625,-0.4375 l 0,-1.84375 c 0,-1.03125 0.703125,-1.59375 1.34375,-1.59375 0.625,0 0.734375,0.53125 0.734375,1.109375 l 0,2.328125 c 0,0.4375 -0.109375,0.4375 -0.78125,0.4375 l 0,0.3125 c 0.34375,-0.015625 0.859375,-0.03125 1.125,-0.03125 0.265625,0 0.78125,0.015625 1.125,0.03125 l 0,-0.3125 c -0.515625,0 -0.765625,0 -0.78125,-0.296875 l 0,-1.90625 c 0,-0.859375 0,-1.15625 -0.3125,-1.515625 -0.140625,-0.171875 -0.46875,-0.375 -1.046875,-0.375 -0.828125,0 -1.28125,0.59375 -1.4375,0.984375 C 4.390625,-4.296875 3.65625,-4.40625 3.203125,-4.40625 2.46875,-4.40625 2,-3.984375 1.71875,-3.359375 l 0,-1.046875 -1.40625,0.109375 0,0.3125 c 0.703125,0 0.78125,0.0625 0.78125,0.5625 z m 0,0"
             id="path5475"
             inkscape:connector-curvature="0" />
        </symbol>
        <symbol
           overflow="visible"
           id="textext-0bbd034e-6"
           style="overflow:visible">
          <path
             style="stroke:none"
             d="m 1.578125,-7.484375 -1.359375,0 0,0.40625 0.96875,0 0,9.171875 -0.96875,0 0,0.40625 1.359375,0 z m 0,0"
             id="path5478"
             inkscape:connector-curvature="0" />
        </symbol>
      </g>
    </defs>
    <g
       id="textext-0bbd034e-7">
      <g
         style="fill:#000000;fill-opacity:1"
         id="g5481">
        <use
           xlink:href="#textext-0bbd034e-1"
           x="223.43201"
           y="134.765"
           id="use5483"
           width="100%"
           height="100%" />
      </g>
      <g
         style="fill:#000000;fill-opacity:1"
         id="g5485">
        <use
           xlink:href="#textext-0bbd034e-3"
           x="229.922"
           y="134.765"
           id="use5487"
           width="100%"
           height="100%" />
        <use
           xlink:href="#textext-0bbd034e-4"
           x="232.68961"
           y="134.765"
           id="use5489"
           width="100%"
           height="100%" />
        <use
           xlink:href="#textext-0bbd034e-5"
           x="238.22484"
           y="134.765"
           id="use5491"
           width="100%"
           height="100%" />
        <use
           xlink:href="#textext-0bbd034e-6"
           x="246.52667"
           y="134.765"
           id="use5493"
           width="100%"
           height="100%" />
      </g>
    </g>
  </g>
  <g
     id="g5955"
     ns0:preamble=""
     ns0:text="$A $ [dm$^2$]"
     transform="matrix(0,-4.4351922,4.4351922,0,-561.15827,1253.8268)">
    <defs
       id="defs5957">
      <g
         id="g5959">
        <symbol
           id="textext-0c822c8d-0"
           overflow="visible"
           style="overflow:visible">
          <path
             id="path5962"
             d=""
             style="stroke:none"
             inkscape:connector-curvature="0" />
        </symbol>
        <symbol
           id="textext-0c822c8d-1"
           overflow="visible"
           style="overflow:visible">
          <path
             id="path5965"
             d="M 1.78125,-1.140625 C 1.390625,-0.484375 1,-0.34375 0.5625,-0.3125 0.4375,-0.296875 0.34375,-0.296875 0.34375,-0.109375 0.34375,-0.046875 0.40625,0 0.484375,0 0.75,0 1.0625,-0.03125 1.328125,-0.03125 c 0.34375,0 0.6875,0.03125 1,0.03125 0.0625,0 0.1875,0 0.1875,-0.1875 0,-0.109375 -0.078125,-0.125 -0.15625,-0.125 -0.21875,-0.015625 -0.46875,-0.09375 -0.46875,-0.34375 0,-0.125 0.0625,-0.234375 0.140625,-0.375 l 0.765625,-1.265625 2.5,0 c 0.015625,0.203125 0.15625,1.5625 0.15625,1.65625 0,0.296875 -0.515625,0.328125 -0.71875,0.328125 C 4.59375,-0.3125 4.5,-0.3125 4.5,-0.109375 4.5,0 4.609375,0 4.640625,0 5.046875,0 5.46875,-0.03125 5.875,-0.03125 6.125,-0.03125 6.765625,0 7.015625,0 7.0625,0 7.1875,0 7.1875,-0.203125 7.1875,-0.3125 7.09375,-0.3125 6.953125,-0.3125 6.34375,-0.3125 6.34375,-0.375 6.3125,-0.671875 l -0.609375,-6.21875 c -0.015625,-0.203125 -0.015625,-0.25 -0.1875,-0.25 -0.15625,0 -0.203125,0.078125 -0.265625,0.171875 z M 2.984375,-2.609375 4.9375,-5.90625 5.265625,-2.609375 Z m 0,0"
             style="stroke:none"
             inkscape:connector-curvature="0" />
        </symbol>
        <symbol
           id="textext-0c822c8d-2"
           overflow="visible"
           style="overflow:visible">
          <path
             id="path5968"
             d=""
             style="stroke:none"
             inkscape:connector-curvature="0" />
        </symbol>
        <symbol
           id="textext-0c822c8d-3"
           overflow="visible"
           style="overflow:visible">
          <path
             id="path5971"
             d="m 2.546875,2.5 0,-0.40625 -0.96875,0 0,-9.171875 0.96875,0 0,-0.40625 -1.375,0 0,9.984375 z m 0,0"
             style="stroke:none"
             inkscape:connector-curvature="0" />
        </symbol>
        <symbol
           id="textext-0c822c8d-4"
           overflow="visible"
           style="overflow:visible">
          <path
             id="path5974"
             d="m 3.78125,-0.546875 0,0.65625 L 5.25,0 l 0,-0.3125 c -0.6875,0 -0.78125,-0.0625 -0.78125,-0.5625 l 0,-6.046875 -1.421875,0.109375 0,0.3125 c 0.6875,0 0.765625,0.0625 0.765625,0.5625 l 0,2.15625 c -0.28125,-0.359375 -0.71875,-0.625 -1.25,-0.625 -1.171875,0 -2.21875,0.984375 -2.21875,2.265625 0,1.265625 0.96875,2.25 2.109375,2.25 0.640625,0 1.078125,-0.34375 1.328125,-0.65625 z m 0,-2.671875 0,2.046875 c 0,0.171875 0,0.1875 -0.109375,0.359375 C 3.375,-0.328125 2.9375,-0.109375 2.5,-0.109375 2.046875,-0.109375 1.6875,-0.375 1.453125,-0.75 1.203125,-1.15625 1.171875,-1.71875 1.171875,-2.140625 1.171875,-2.5 1.1875,-3.09375 1.46875,-3.546875 1.6875,-3.859375 2.0625,-4.1875 2.609375,-4.1875 c 0.34375,0 0.765625,0.15625 1.0625,0.59375 0.109375,0.171875 0.109375,0.1875 0.109375,0.375 z m 0,0"
             style="stroke:none"
             inkscape:connector-curvature="0" />
        </symbol>
        <symbol
           id="textext-0c822c8d-5"
           overflow="visible"
           style="overflow:visible">
          <path
             id="path5977"
             d="m 1.09375,-3.421875 0,2.671875 c 0,0.4375 -0.109375,0.4375 -0.78125,0.4375 l 0,0.3125 c 0.359375,-0.015625 0.859375,-0.03125 1.140625,-0.03125 0.25,0 0.765625,0.015625 1.109375,0.03125 l 0,-0.3125 c -0.671875,0 -0.78125,0 -0.78125,-0.4375 l 0,-1.84375 C 1.78125,-3.625 2.5,-4.1875 3.125,-4.1875 c 0.640625,0 0.75,0.53125 0.75,1.109375 l 0,2.328125 c 0,0.4375 -0.109375,0.4375 -0.78125,0.4375 l 0,0.3125 c 0.34375,-0.015625 0.859375,-0.03125 1.125,-0.03125 0.25,0 0.78125,0.015625 1.109375,0.03125 l 0,-0.3125 c -0.65625,0 -0.765625,0 -0.765625,-0.4375 l 0,-1.84375 c 0,-1.03125 0.703125,-1.59375 1.34375,-1.59375 0.625,0 0.734375,0.53125 0.734375,1.109375 l 0,2.328125 c 0,0.4375 -0.109375,0.4375 -0.78125,0.4375 l 0,0.3125 c 0.34375,-0.015625 0.859375,-0.03125 1.125,-0.03125 0.265625,0 0.78125,0.015625 1.125,0.03125 l 0,-0.3125 c -0.515625,0 -0.765625,0 -0.78125,-0.296875 l 0,-1.90625 c 0,-0.859375 0,-1.15625 -0.3125,-1.515625 -0.140625,-0.171875 -0.46875,-0.375 -1.046875,-0.375 -0.828125,0 -1.28125,0.59375 -1.4375,0.984375 C 4.390625,-4.296875 3.65625,-4.40625 3.203125,-4.40625 2.46875,-4.40625 2,-3.984375 1.71875,-3.359375 l 0,-1.046875 -1.40625,0.109375 0,0.3125 c 0.703125,0 0.78125,0.0625 0.78125,0.5625 z m 0,0"
             style="stroke:none"
             inkscape:connector-curvature="0" />
        </symbol>
        <symbol
           id="textext-0c822c8d-6"
           overflow="visible"
           style="overflow:visible">
          <path
             id="path5980"
             d="m 1.578125,-7.484375 -1.359375,0 0,0.40625 0.96875,0 0,9.171875 -0.96875,0 0,0.40625 1.359375,0 z m 0,0"
             style="stroke:none"
             inkscape:connector-curvature="0" />
        </symbol>
        <symbol
           id="textext-0c822c8d-7"
           overflow="visible"
           style="overflow:visible">
          <path
             id="path5983"
             d=""
             style="stroke:none"
             inkscape:connector-curvature="0" />
        </symbol>
        <symbol
           id="textext-0c822c8d-8"
           overflow="visible"
           style="overflow:visible">
          <path
             id="path5986"
             d="m 3.515625,-1.265625 -0.234375,0 c -0.015625,0.15625 -0.09375,0.5625 -0.1875,0.625 -0.046875,0.046875 -0.578125,0.046875 -0.6875,0.046875 l -1.28125,0 c 0.734375,-0.640625 0.984375,-0.84375 1.390625,-1.171875 0.515625,-0.40625 1,-0.84375 1,-1.5 0,-0.84375 -0.734375,-1.359375 -1.625,-1.359375 -0.859375,0 -1.453125,0.609375 -1.453125,1.25 0,0.34375 0.296875,0.390625 0.375,0.390625 0.15625,0 0.359375,-0.125 0.359375,-0.375 0,-0.125 -0.046875,-0.375 -0.40625,-0.375 C 0.984375,-4.21875 1.453125,-4.375 1.78125,-4.375 c 0.703125,0 1.0625,0.546875 1.0625,1.109375 0,0.609375 -0.4375,1.078125 -0.65625,1.328125 L 0.515625,-0.265625 C 0.4375,-0.203125 0.4375,-0.1875 0.4375,0 l 2.875,0 z m 0,0"
             style="stroke:none"
             inkscape:connector-curvature="0" />
        </symbol>
      </g>
    </defs>
    <g
       id="textext-0c822c8d-9">
      <g
         id="g5989"
         style="fill:#000000;fill-opacity:1">
        <use
           id="use5991"
           y="134.765"
           x="223.43201"
           xlink:href="#textext-0c822c8d-1"
           width="100%"
           height="100%" />
      </g>
      <g
         id="g5993"
         style="fill:#000000;fill-opacity:1">
        <use
           id="use5995"
           y="134.765"
           x="234.22501"
           xlink:href="#textext-0c822c8d-3"
           width="100%"
           height="100%" />
        <use
           id="use5997"
           y="134.765"
           x="236.99261"
           xlink:href="#textext-0c822c8d-4"
           width="100%"
           height="100%" />
        <use
           id="use5999"
           y="134.765"
           x="242.52783"
           xlink:href="#textext-0c822c8d-5"
           width="100%"
           height="100%" />
      </g>
      <g
         id="g6001"
         style="fill:#000000;fill-opacity:1">
        <use
           id="use6003"
           y="131.149"
           x="250.82899"
           xlink:href="#textext-0c822c8d-8"
           width="100%"
           height="100%" />
      </g>
      <g
         id="g6005"
         style="fill:#000000;fill-opacity:1">
        <use
           id="use6007"
           y="134.765"
           x="255.299"
           xlink:href="#textext-0c822c8d-6"
           width="100%"
           height="100%" />
      </g>
    </g>
  </g>
  <text
     xml:space="preserve"
     style="font-style:normal;font-weight:normal;font-size:40px;line-height:125%;font-family:sans-serif;letter-spacing:0px;word-spacing:0px;fill:#000000;fill-opacity:1;stroke:none;stroke-width:1px;stroke-linecap:butt;stroke-linejoin:miter;stroke-opacity:1"
     x="570.02734"
     y="26.400749"
     id="text7834-8"
     sodipodi:linespacing="125%"
     inkscape:transform-center-x="11.940908"
     inkscape:transform-center-y="4.2456561"><tspan
       sodipodi:role="line"
       id="tspan7836-7"
       x="570.02734"
       y="26.400749"
       style="font-weight:bold;font-size:40px;fill:#d40000">+</tspan></text>
  <text
     xml:space="preserve"
     style="font-style:normal;font-weight:normal;font-size:40px;line-height:125%;font-family:sans-serif;letter-spacing:0px;word-spacing:0px;fill:#000000;fill-opacity:1;stroke:none;stroke-width:1px;stroke-linecap:butt;stroke-linejoin:miter;stroke-opacity:1"
     x="176.35524"
     y="371.87973"
     id="text7834-1"
     sodipodi:linespacing="125%"
     inkscape:transform-center-x="11.940908"
     inkscape:transform-center-y="4.2456561"><tspan
       sodipodi:role="line"
       id="tspan7836-72"
       x="176.35524"
       y="371.87973"
       style="font-weight:bold;font-size:40px;fill:#d40000">+</tspan></text>
  <text
     xml:space="preserve"
     style="font-style:normal;font-weight:normal;font-size:40px;line-height:125%;font-family:sans-serif;letter-spacing:0px;word-spacing:0px;fill:#000000;fill-opacity:1;stroke:none;stroke-width:1px;stroke-linecap:butt;stroke-linejoin:miter;stroke-opacity:1"
     x="129.83023"
     y="376.237"
     id="text7834-7"
     sodipodi:linespacing="125%"
     inkscape:transform-center-x="11.940908"
     inkscape:transform-center-y="4.2456561"><tspan
       sodipodi:role="line"
       id="tspan7836-2"
       x="129.83023"
       y="376.237"
       style="font-weight:bold;font-size:40px;fill:#d40000">+</tspan></text>
</svg>
